999
This conversion module was created by Thorsten Lemke and Kurt Geisweller.7.5.1
999

  0
SECTION
  2
HEADER
  9
$ACADVER
  1
AC1009
  9
$INSBASE
 10
0.0
 20
0.0
  9
$EXTMIN
 10
0.0
 20
-20.07683849
  9
$EXTMAX
 10
610.45582502
 20
60.3
  9
$LIMMIN
 10
0.0
 20
-20.07683849
  9
$LIMMAX
 10
610.45582502
 20
60.3
  9
$ORTHOMODE
 70
0
  9
$REGENMODE
 70
1
  9
$FILLMODE
 70
1
  9
$QTEXTMODE
 70
0
  9
$MIRRTEXT
 70
0
  9
$DRAGMODE
 70
2
  9
$LTSCALE
 40
25.0
  9
$ATTMODE
 70
1
  9
$TEXTSIZE
 40
3.5
  9
$TEXTSTYLE
  7
STANDARD
  9
$CELTYPE
  6
BYLAYER
  9
$DIMSCALE
 40
1.0
  9
$DIMASZ
 40
3.5
  9
$DIMEXO
 40
0.1
  9
$DIMDLI
 40
0.0
  9
$DIMRND
 40
0.0
  9
$DIMDLE
 40
0.0
  9
$DIMEXE
 40
1.8
  9
$DIMTP
 40
0.0
  9
$DIMTM
 40
0.0
  9
$DIMTXT
 40
3.5
  9
$DIMCEN
 40
1.5
  9
$DIMTSZ
 40
0.0
  9
$DIMTOL
 70
0
  9
$DIMLIM
 70
0
  9
$DIMTIH
 70
0
  9
$DIMTOH
 70
0
  9
$DIMSE1
 70
0
  9
$DIMSE2
 70
0
  9
$DIMTAD
 70
0
  9
$DIMZIN
 70
4
  9
$DIMBLK
  1

  9
$DIMASO
 70
0
  9
$DIMSHO
 70
0
  9
$DIMPOST
  1

  9
$DIMAPOST
  1

  9
$DIMALT
 70
0
  9
$DIMALTD
 70
8
  9
$DIMALTF
 40
25.4
  9
$DIMLFAC
 40
1.0
  9
$DIMTOFL
 70
0
  9
$DIMTVP
 40
0.0
  9
$DIMTIX
 70
0
  9
$DIMSOXD
 70
0
  9
$DIMSAH
 70
0
  9
$DIMBLK1
  1

  9
$DIMBLK2
  1

  9
$DIMSTYLE
  2
*UNNAMED
  9
$DIMCLRD
 70
0
  9
$DIMCLRE
 70
0
  9
$DIMCLRT
 70
0
  9
$DIMTFAC
 40
1.0
  9
$DIMGAP
 40
0.09
  9
$LUNITS
 70
2
  9
$LUPREC
 70
2
  9
$SKETCHINC
 40
1.0
  9
$FILLETRAD
 40
0.0
  9
$AUNITS
 70
0
  9
$AUPREC
 70
2
  9
$MENU
  1
ACAD
  9
$ANGBASE
 50
0.0
  9
$ANGDIR
 70
0
  9
$PDMODE
 70
0
  9
$PDSIZE
 40
0.0
  9
$SPLFRAME
 70
0
  9
$SPLINETYPE
 70
6
  9
$SPLINESEGS
 70
8
  9
$ATTDIA
 70
0
  9
$HANDLING
 70
0
  9
$HANDSEED
  5
0
  9
$TILEMODE
 70
1
  9
$MAXACTVP
 70
16
  9
$PLIMMIN
 10
0.0
 20
0.0
  9
$PLIMMAX
 10
12.0
 20
9.0
  9
$UNITMODE
 70
0
  9
$VISRETAIN
 70
0
  9
$PLINEGEN
 70
0
  9
$TREEDEPTH
 70
0
  9
$DWGCODEPAGE
  3
mac
  0
ENDSEC
  0
SECTION
  2
TABLES
  0
TABLE
  2
LTYPE
 70
6
  0
LTYPE
  2
CONTINUOUS
 70
64
  3
Solid Line
 72
65
 73
0
 40
0.0
  0
LTYPE
  2
DASHED
 70
64
  3
__ __ __ __ __
 72
65
 73
2
 40
1.5
 49
1.2
 49
-0.3
  0
LTYPE
  2
HIDDEN
 70
64
  3
_ _ _ _ _
 72
65
 73
2
 40
1.5
 49
1.2
 49
-0.3
  0
LTYPE
  2
CENTER
 70
64
  3
__ . __ . __
 72
65
 73
4
 40
3.6
 49
2.4
 49
-0.6
 49
0.0
 49
-0.6
  0
LTYPE
  2
PHANTOM
 70
64
  3
_____ . . _____ . . _____ . . ____ .. ____
 72
65
 73
6
 40
17.5
 49
10.0
 49
-2.5
 49
0.0
 49
-2.5
 49
0.0
 49
-2.5
  0
LTYPE
  2
DOT
 70
64
  3
. . . . . . . . . . . . . . . . . . . . . . . .
 72
65
 73
2
 40
0.25
 49
0.0
 49
-0.25
  0
ENDTAB
  0
TABLE
  2
LAYER
 70
3
  0
LAYER
  2
0
 70
64
 62
7
  6
CONTINUOUS
  0
LAYER
  2
DEFPOINTS
 70
64
 62
-7
  6
CONTINUOUS
  0
LAYER
  2
LAYER_0001
 70
64
 62
7
  6
CONTINUOUS
  0
ENDTAB
  0
TABLE
  2
STYLE
 70
1
  0
STYLE
  2
STANDARD
 70
0
 40
0.0
 41
1.0
 50
0.0
 71
0
 42
3.5
  3
txt
  4

  0
ENDTAB
  0
TABLE
  2
DIMSTYLE
 70
1
  0
DIMSTYLE
  2
Standard
 70
0
  3

  4

  5

  6

  7

 40
1.0
 41
3.5
 42
0.1
 43
0.0
 44
0.0
 45
0.0
 46
0.0
 47
0.0
 48
0.0
140
3.5
141
1.5
142
0.0
143
25.4
144
1.0
145
0.0
146
1.0
147
0.09
 71
0
 72
0
 73
0
 74
0
 75
0
 76
0
 77
0
 78
4
170
0
171
8
172
0
173
0
174
0
175
0
176
0
177
0
178
0
  0
ENDTAB
  0
TABLE
  2
VIEW
 70
0
  0
ENDTAB
  0
ENDSEC
  0
SECTION
  2
BLOCKS
  0
BLOCK
  8
0
  2
*D0
 70
65
 10
0.0
 20
0.0
  3
*D
  0
LINE
  8
0
 62
1
 10
297.8
 20
22.725
 11
297.8
 21
-18.0320115
  0
LINE
  8
0
 62
1
 10
307.2
 20
22.725
 11
307.2
 21
-18.0320115
  0
LINE
  8
0
 62
1
 10
297.8
 20
-17.0320115
 11
307.2
 21
-17.0320115
  0
SOLID
  8
0
 62
1
 10
297.8
 20
-17.0320115
 11
294.3
 21
-17.49279524
 12
294.3
 22
-16.57122776
 13
294.3
 23
-16.57122776
  0
SOLID
  8
0
 62
1
 10
307.2
 20
-17.0320115
 11
310.7
 21
-16.57122776
 12
310.7
 22
-17.49279524
 13
310.7
 23
-17.49279524
  0
TEXT
  8
0
  6
CONTINUOUS
 62
0
 10
298.79583342
 20
-16.0320115
 40
3.5
 41
0.8
  1
94.0
 50
0.0
 72
1
 11
302.5
 21
-14.2681265
 73
2
  0
POINT
  8
0
 62
1
 10
297.8
 20
23.725
  0
POINT
  8
0
 62
1
 10
307.2
 20
23.725
  0
POINT
  8
0
 62
1
 10
302.5
 20
-16.0320115
  0
ENDBLK
  8
0
  0
BLOCK
  8
0
  2
*D1
 70
65
 10
0.0
 20
0.0
  3
*D
  0
LINE
  8
0
 62
1
 10
598.0
 20
3.0
 11
598.0
 21
-22.07683849
  0
LINE
  8
0
 62
1
 10
605.0
 20
-1.0
 11
605.0
 21
-22.07683849
  0
LINE
  8
0
 62
1
 10
590.2617246
 20
-21.07683849
 11
605.0
 21
-21.07683849
  0
SOLID
  8
0
 62
1
 10
598.0
 20
-21.07683849
 11
594.5
 21
-21.53762223
 12
594.5
 22
-20.61605475
 13
594.5
 23
-20.61605475
  0
SOLID
  8
0
 62
1
 10
605.0
 20
-21.07683849
 11
608.5
 21
-20.61605475
 12
608.5
 22
-21.53762223
 13
608.5
 23
-21.53762223
  0
TEXT
  8
0
  6
CONTINUOUS
 62
0
 10
590.2617246
 20
-20.07683849
 40
3.5
 41
0.8
  1
70.0
 50
0.0
 72
1
 11
593.96589118
 21
-18.31295349
 73
2
  0
POINT
  8
0
 62
1
 10
598.0
 20
4.0
  0
POINT
  8
0
 62
1
 10
605.0
 20
0.0
  0
POINT
  8
0
 62
1
 10
593.96589118
 20
-20.07683849
  0
ENDBLK
  8
0
  0
BLOCK
  8
0
  2
*D2
 70
65
 10
0.0
 20
0.0
  3
*D
  0
LINE
  8
0
 62
1
 10
7.0
 20
5.0
 11
7.0
 21
15.31032812
  0
LINE
  8
0
 62
1
 10
297.8
 20
5.0
 11
297.8
 21
15.31032812
  0
LINE
  8
0
 62
1
 10
7.0
 20
14.31032812
 11
297.8
 21
14.31032812
  0
SOLID
  8
0
 62
1
 10
7.0
 20
14.31032812
 11
10.5
 21
14.77111187
 12
10.5
 22
13.84954438
 13
10.5
 23
13.84954438
  0
SOLID
  8
0
 62
1
 10
297.8
 20
14.31032812
 11
294.3
 21
13.84954438
 12
294.3
 22
14.77111187
 13
294.3
 23
14.77111187
  0
TEXT
  8
0
  6
CONTINUOUS
 62
0
 10
146.57916679
 20
15.31032812
 40
3.5
 41
0.8
  1
2908.0
 50
0.0
 72
1
 11
152.4
 21
17.07421312
 73
2
  0
POINT
  8
0
 62
1
 10
7.0
 20
4.0
  0
POINT
  8
0
 62
1
 10
297.8
 20
4.0
  0
POINT
  8
0
 62
1
 10
152.4
 20
15.31032812
  0
ENDBLK
  8
0
  0
BLOCK
  8
0
  2
*D3
 70
65
 10
0.0
 20
0.0
  3
*D
  0
LINE
  8
0
 62
1
 10
307.2
 20
5.0
 11
307.2
 21
15.31032812
  0
LINE
  8
0
 62
1
 10
598.0
 20
5.0
 11
598.0
 21
15.31032812
  0
LINE
  8
0
 62
1
 10
307.2
 20
14.31032812
 11
598.0
 21
14.31032812
  0
SOLID
  8
0
 62
1
 10
307.2
 20
14.31032812
 11
310.7
 21
14.77111187
 12
310.7
 22
13.84954438
 13
310.7
 23
13.84954438
  0
SOLID
  8
0
 62
1
 10
598.0
 20
14.31032812
 11
594.5
 21
13.84954438
 12
594.5
 22
14.77111187
 13
594.5
 23
14.77111187
  0
TEXT
  8
0
  6
CONTINUOUS
 62
0
 10
446.7791668
 20
15.31032812
 40
3.5
 41
0.8
  1
2908.0
 50
0.0
 72
1
 11
452.6
 21
17.07421312
 73
2
  0
POINT
  8
0
 62
1
 10
307.2
 20
4.0
  0
POINT
  8
0
 62
1
 10
598.0
 20
4.0
  0
POINT
  8
0
 62
1
 10
452.6
 20
15.31032812
  0
ENDBLK
  8
0
  0
BLOCK
  8
0
  2
*D4
 70
65
 10
0.0
 20
0.0
  3
*D
  0
LINE
  8
0
 62
1
 10
7.0
 20
30.655
 11
7.0
 21
28.80875686
  0
LINE
  8
0
 62
1
 10
598.0
 20
30.655
 11
598.0
 21
28.80875686
  0
LINE
  8
0
 62
1
 10
7.0
 20
29.80875686
 11
598.0
 21
29.80875686
  0
SOLID
  8
0
 62
1
 10
7.0
 20
29.80875686
 11
10.5
 21
30.2695406
 12
10.5
 22
29.34797312
 13
10.5
 23
29.34797312
  0
SOLID
  8
0
 62
1
 10
598.0
 20
29.80875686
 11
594.5
 21
29.34797312
 12
594.5
 22
30.2695406
 13
594.5
 23
30.2695406
  0
TEXT
  8
0
  6
CONTINUOUS
 62
0
 10
296.6791668
 20
30.80875686
 40
3.5
 41
0.8
  1
5910.0
 50
0.0
 72
1
 11
302.5
 21
32.57264186
 73
2
  0
POINT
  8
0
 62
1
 10
7.0
 20
31.655
  0
POINT
  8
0
 62
1
 10
598.0
 20
31.655
  0
POINT
  8
0
 62
1
 10
302.5
 20
30.80875686
  0
ENDBLK
  8
0
  0
BLOCK
  8
0
  2
*D5
 70
65
 10
0.0
 20
0.0
  3
*D
  0
LINE
  8
0
 62
1
 10
606.0
 20
28.645
 11
612.45582502
 21
28.645
  0
LINE
  8
0
 62
1
 10
606.0
 20
31.655
 11
612.45582502
 21
31.655
  0
LINE
  8
0
 62
1
 10
611.45582502
 20
26.44583341
 11
611.45582502
 21
31.655
  0
SOLID
  8
0
 62
1
 10
611.45582502
 20
28.645
 11
611.91660876
 21
25.145
 12
610.99504128
 22
25.145
 13
610.99504128
 23
25.145
  0
SOLID
  8
0
 62
1
 10
611.45582502
 20
31.655
 11
610.99504128
 21
35.155
 12
611.91660876
 22
35.155
 13
611.91660876
 23
35.155
  0
TEXT
  8
0
  6
CONTINUOUS
 62
0
 10
610.45582502
 20
26.44583341
 40
3.5
 41
0.8
  1
30.1
 50
90.0
 72
1
 11
608.69194002
 21
30.15
 73
2
  0
POINT
  8
0
 62
1
 10
605.0
 20
28.645
  0
POINT
  8
0
 62
1
 10
605.0
 20
31.655
  0
POINT
  8
0
 62
1
 10
610.45582502
 20
30.15
  0
ENDBLK
  8
0
  0
BLOCK
  8
0
  2
*D6
 70
65
 10
0.0
 20
0.0
  3
*D
  0
LINE
  8
0
 62
1
 10
308.2
 20
23.725
 11
314.55368295
 21
23.725
  0
LINE
  8
0
 62
1
 10
308.2
 20
36.575
 11
314.55368295
 21
36.575
  0
LINE
  8
0
 62
1
 10
313.55368295
 20
23.725
 11
313.55368295
 21
36.575
  0
SOLID
  8
0
 62
1
 10
313.55368295
 20
23.725
 11
313.09289921
 21
27.225
 12
314.01446669
 22
27.225
 13
314.01446669
 23
27.225
  0
SOLID
  8
0
 62
1
 10
313.55368295
 20
36.575
 11
314.01446669
 21
33.075
 12
313.09289921
 22
33.075
 13
313.09289921
 23
33.075
  0
TEXT
  8
0
  6
CONTINUOUS
 62
0
 10
312.55368295
 20
25.38750011
 40
3.5
 41
0.8
  1
128.5
 50
90.0
 72
1
 11
310.78979795
 21
30.15
 73
2
  0
POINT
  8
0
 62
1
 10
307.2
 20
23.725
  0
POINT
  8
0
 62
1
 10
307.2
 20
36.575
  0
POINT
  8
0
 62
1
 10
312.55368295
 20
30.15
  0
ENDBLK
  8
0
  0
ENDSEC
  0
SECTION
  2
ENTITIES
  0
LINE
  8
LAYER_0001
  6
HIDDEN
 62
1
 10
598.0
 20
28.645
 11
605.0
 21
28.645
  0
LINE
  8
LAYER_0001
  6
HIDDEN
 62
1
 10
598.0
 20
31.655
 11
605.0
 21
31.655
  0
LINE
  8
LAYER_0001
  6
CONTINUOUS
 62
1
 10
598.0
 20
4.0
 11
598.0
 21
56.3
  0
LINE
  8
LAYER_0001
  6
CONTINUOUS
 62
1
 10
7.0
 20
4.0
 11
297.8
 21
4.0
  0
LINE
  8
LAYER_0001
  6
CONTINUOUS
 62
1
 10
7.0
 20
4.0
 11
7.0
 21
56.3
  0
LINE
  8
LAYER_0001
  6
CONTINUOUS
 62
1
 10
0.0
 20
60.3
 11
605.0
 21
60.3
  0
LINE
  8
LAYER_0001
  6
CONTINUOUS
 62
1
 10
297.8
 20
36.575
 11
297.8
 21
56.3
  0
LINE
  8
LAYER_0001
  6
CONTINUOUS
 62
1
 10
297.8
 20
36.575
 11
307.2
 21
36.575
  0
LINE
  8
LAYER_0001
  6
CONTINUOUS
 62
1
 10
7.0
 20
56.3
 11
297.8
 21
56.3
  0
LINE
  8
LAYER_0001
  6
CONTINUOUS
 62
1
 10
307.2
 20
36.575
 11
307.2
 21
56.3
  0
LINE
  8
LAYER_0001
  6
CONTINUOUS
 62
1
 10
307.2
 20
56.3
 11
598.0
 21
56.3
  0
LINE
  8
LAYER_0001
  6
CONTINUOUS
 62
1
 10
307.2
 20
4.0
 11
598.0
 21
4.0
  0
LINE
  8
LAYER_0001
  6
CONTINUOUS
 62
1
 10
307.2
 20
4.0
 11
307.2
 21
23.725
  0
LINE
  8
LAYER_0001
  6
CONTINUOUS
 62
1
 10
297.8
 20
23.725
 11
307.2
 21
23.725
  0
LINE
  8
LAYER_0001
  6
CONTINUOUS
 62
1
 10
297.8
 20
4.0
 11
297.8
 21
23.725
  0
LINE
  8
LAYER_0001
  6
CONTINUOUS
 62
1
 10
0.0
 20
0.0
 11
605.0
 21
0.0
  0
LINE
  8
LAYER_0001
  6
CONTINUOUS
 62
1
 10
0.0
 20
0.0
 11
0.0
 21
60.3
  0
LINE
  8
LAYER_0001
  6
CONTINUOUS
 62
1
 10
605.0
 20
0.0
 11
605.0
 21
60.3
  0
LINE
  8
LAYER_0001
  6
HIDDEN
 62
1
 10
0.0
 20
28.645
 11
7.0
 21
28.645
  0
LINE
  8
LAYER_0001
  6
HIDDEN
 62
1
 10
0.0
 20
31.655
 11
7.0
 21
31.655
  0
DIMENSION
  8
LAYER_0001
  6
CONTINUOUS
 62
1
  2
*D0
  3
Standard
 10
307.2
 20
-12.5042415
 11
302.5
 21
-14.2681265
 70
0
  1
94.0
 13
297.8
 23
23.725
 14
307.2
 24
23.725
 50
0.0
  0
DIMENSION
  8
LAYER_0001
  6
CONTINUOUS
 62
1
  2
*D1
  3
Standard
 10
605.0
 20
-16.54906849
 11
593.96589118
 21
-18.31295349
 70
0
  1
70.0
 13
598.0
 23
4.0
 14
605.0
 24
0.0
 50
0.0
  0
DIMENSION
  8
LAYER_0001
  6
CONTINUOUS
 62
1
  2
*D2
  3
Standard
 10
297.8
 20
18.83809812
 11
152.4
 21
17.07421312
 70
0
  1
2908.0
 13
7.0
 23
4.0
 14
297.8
 24
4.0
 50
0.0
  0
DIMENSION
  8
LAYER_0001
  6
CONTINUOUS
 62
1
  2
*D3
  3
Standard
 10
598.0
 20
18.83809812
 11
452.6
 21
17.07421312
 70
0
  1
2908.0
 13
307.2
 23
4.0
 14
598.0
 24
4.0
 50
0.0
  0
DIMENSION
  8
LAYER_0001
  6
CONTINUOUS
 62
1
  2
*D4
  3
Standard
 10
598.0
 20
34.33652686
 11
302.5
 21
32.57264186
 70
0
  1
5910.0
 13
7.0
 23
31.655
 14
598.0
 24
31.655
 50
0.0
  0
DIMENSION
  8
LAYER_0001
  6
CONTINUOUS
 62
1
  2
*D5
  3
Standard
 10
610.45582502
 20
31.655
 11
608.69194002
 21
30.15
 70
0
  1
30.1
 13
605.0
 23
28.645
 14
605.0
 24
31.655
 50
90.0
  0
DIMENSION
  8
LAYER_0001
  6
CONTINUOUS
 62
1
  2
*D6
  3
Standard
 10
312.55368295
 20
36.575
 11
310.78979795
 21
30.15
 70
0
  1
128.5
 13
307.2
 23
23.725
 14
307.2
 24
36.575
 50
90.0
  0
ENDSEC
  0
EOF
